<?xml version="1.0" encoding="UTF-8" standalone="no"?>
<!-- Created with Inkscape (http://www.inkscape.org/) -->

<svg
   width="506mm"
   height="124mm"
   viewBox="0 0 506 124"
   version="1.1"
   id="svg1"
   xml:space="preserve"
   inkscape:version="1.3 (0e150ed6c4, 2023-07-21)"
   sodipodi:docname="coderlink.svg"
   inkscape:export-filename="..\OneDrive\Pictures\co.png"
   inkscape:export-xdpi="61.927616"
   inkscape:export-ydpi="61.927616"
   xmlns:inkscape="http://www.inkscape.org/namespaces/inkscape"
   xmlns:sodipodi="http://sodipodi.sourceforge.net/DTD/sodipodi-0.dtd"
   xmlns="http://www.w3.org/2000/svg"
   xmlns:svg="http://www.w3.org/2000/svg"><sodipodi:namedview
     id="namedview1"
     pagecolor="#ffffff"
     bordercolor="#000000"
     borderopacity="0.25"
     inkscape:showpageshadow="2"
     inkscape:pageopacity="0.0"
     inkscape:pagecheckerboard="0"
     inkscape:deskcolor="#d1d1d1"
     inkscape:document-units="mm"
     inkscape:zoom="0.5"
     inkscape:cx="1191"
     inkscape:cy="373"
     inkscape:window-width="1920"
     inkscape:window-height="1009"
     inkscape:window-x="-8"
     inkscape:window-y="-8"
     inkscape:window-maximized="1"
     inkscape:current-layer="g4" /><defs
     id="defs1" /><g
     inkscape:label="Layer 1"
     inkscape:groupmode="layer"
     id="layer1"><g
       id="g9"
       transform="matrix(3.4737017,0,0,3.4737017,-695.88369,-1039.0323)"><text
         xml:space="preserve"
         style="font-style:normal;font-variant:normal;font-weight:normal;font-stretch:normal;font-size:14.6242px;font-family:Gilroy-ExtraBold;-inkscape-font-specification:Gilroy-ExtraBold;fill:#000000;fill-opacity:1;stroke:#ffffff;stroke-width:1.90632;stroke-linecap:round;stroke-miterlimit:148.3;stroke-opacity:1;paint-order:stroke fill markers"
         x="251.3614"
         y="333.08456"
         id="text3"><tspan
           sodipodi:role="line"
           id="tspan3"
           style="stroke-width:1.90632"
           x="251.3614"
           y="333.08456" /></text><g
         id="g5"
         transform="translate(-13.710158,-12.643813)"><g
           id="g6"
           inkscape:export-filename="..\OneDrive\Pictures\g6.svg"
           inkscape:export-xdpi="61.927616"
           inkscape:export-ydpi="61.927616"
           transform="matrix(1.5213356,0,0,1.5213356,-111.72473,-162.58938)"><g
             id="g1"
             transform="translate(-0.40052988,-0.34928262)"><g
               id="g2"
               transform="matrix(0.50399664,0,0,0.50399664,106.91012,155.6103)"><circle
                 style="fill:#0d6efd;fill-opacity:1;stroke:none;stroke-width:1.90632;stroke-linecap:round;stroke-miterlimit:148.3;stroke-opacity:1;paint-order:stroke fill markers"
                 id="path1"
                 cx="237.0419"
                 cy="333.9986"
                 r="23.0026"
                 transform="translate(-1.1994889e-6)" /><path
                 style="fill:#ffffff;stroke:#ffffff;stroke-width:1.61263;stroke-dasharray:none;stroke-opacity:1"
                 d="m 241.77037,336.69024 -2.10278,-2.40762 -2.80731,2.11117 c 0.33146,0.74229 3.91145,3.46378 4.49388,4.01842 3.56741,3.39725 9.51938,3.10536 12.41604,-1.05378 0.79565,-1.14241 1.19508,-2.40555 1.38677,-3.76926 0.14888,-1.0591 0.0252,-2.21826 -0.30505,-3.2368 -1.51192,-4.66238 -6.65694,-6.79478 -11.0931,-4.94073 -1.63781,0.68451 -2.93814,2.11886 -4.27165,3.24755 -2.69847,2.28396 -5.38098,4.58447 -8.05849,6.89262 -0.76605,0.66037 -1.51296,1.31736 -2.4875,1.64788 -2.23863,0.75924 -4.77814,-0.24119 -5.96914,-2.27558 -2.01467,-3.44131 0.9442,-8.19564 5.01648,-7.53954 1.11333,0.17938 2.10084,0.52586 2.9284,1.29305 0.46522,0.43129 2.14579,-2.1876 1.50847,-2.20741 -3.00919,-0.0935 -0.1563,0.38136 0.18448,0.0871 0.13827,-0.11937 -1.74067,-1.01135 -1.73705,-1.21892 0.007,-0.40986 2.10715,1.49927 1.8194,1.23992 -1.47676,-1.33094 -2.00801,-1.78498 -4.0207,-2.10133 -4.85735,-0.76345 -9.54295,3.04639 -9.41091,8.06408 0.14448,5.4909 5.74666,9.27241 10.89684,7.42139 1.87694,-0.67459 3.27436,-2.14169 4.76614,-3.40478 2.69782,-2.28425 5.36481,-4.60423 8.0585,-6.89338 1.75799,-1.49398 3.60127,-2.49912 5.92956,-1.6394 4.73722,1.74922 4.03634,8.77899 -0.87169,9.69362 -2.75085,0.51263 -4.36932,-1.42508 -6.26959,-3.02831 z"
                 id="path3"
                 sodipodi:nodetypes="cccssscsssssssssssssssssscc" /></g><g
               id="g4"
               transform="translate(-0.15233509,-1.2186807)"><path
                 style="font-size:16.1847px;font-family:Gilroy-ExtraBold;-inkscape-font-specification:Gilroy-ExtraBold;stroke-width:2.10973;stroke-linecap:round;stroke-miterlimit:148.3;paint-order:stroke fill markers"
                 d="m 245.20439,327.66406 q -1.84506,0 -3.0751,-1.23004 -1.21385,-1.23004 -1.21385,-3.04273 0,-1.81268 1.21385,-3.04272 1.23004,-1.23004 3.0751,-1.23004 1.1653,0 2.13638,0.56647 0.98726,0.56646 1.52136,1.50518 l -2.1202,1.23003 q -0.43698,-0.90634 -1.56991,-0.90634 -0.79305,0 -1.31096,0.53409 -0.51791,0.51791 -0.51791,1.34333 0,0.82542 0.51791,1.35952 0.51791,0.51791 1.31096,0.51791 1.14911,0 1.56991,-0.90634 l 2.1202,1.21385 q -0.5341,0.9549 -1.50518,1.52136 -0.97108,0.56647 -2.15256,0.56647 z m 11.39404,-1.23004 q -1.24622,1.23004 -3.04272,1.23004 -1.79651,0 -3.04273,-1.23004 -1.24622,-1.24622 -1.24622,-3.04273 0,-1.7965 1.24622,-3.02653 1.24622,-1.24623 3.04273,-1.24623 1.7965,0 3.04272,1.24623 1.24622,1.23003 1.24622,3.02653 0,1.79651 -1.24622,3.04273 z m -4.36987,-1.66703 q 0.53409,0.5341 1.32715,0.5341 0.79305,0 1.32714,-0.5341 0.5341,-0.53409 0.5341,-1.3757 0,-0.8416 -0.5341,-1.3757 -0.53409,-0.53409 -1.32714,-0.53409 -0.79306,0 -1.32715,0.53409 -0.5341,0.5341 -0.5341,1.3757 0,0.84161 0.5341,1.3757 z m 12.86684,-8.65881 h 2.4277 v 11.32929 h -2.4277 v -0.76068 q -0.85779,0.98727 -2.41152,0.98727 -1.60229,0 -2.73522,-1.23004 -1.13292,-1.24622 -1.13292,-3.04273 0,-1.7965 1.13292,-3.02653 1.13293,-1.24623 2.73522,-1.24623 1.55373,0 2.41152,0.98727 z m -3.31786,8.72355 q 0.53409,0.5341 1.39188,0.5341 0.85779,0 1.39188,-0.5341 0.5341,-0.53409 0.5341,-1.44044 0,-0.90634 -0.5341,-1.44043 -0.53409,-0.5341 -1.39188,-0.5341 -0.85779,0 -1.39188,0.5341 -0.5341,0.53409 -0.5341,1.44043 0,0.90635 0.5341,1.44044 z m 9.69462,-0.46935 q 0.4208,1.13293 1.94216,1.13293 0.98727,0 1.55373,-0.61502 l 1.94217,1.11674 q -1.19767,1.66703 -3.52827,1.66703 -2.03927,0 -3.26931,-1.21386 -1.21385,-1.21385 -1.21385,-3.05891 0,-1.82887 1.19767,-3.04272 1.21385,-1.23004 3.10746,-1.23004 1.76413,0 2.92943,1.23004 1.18148,1.21385 1.18148,3.04272 0,0.51791 -0.0971,0.97109 z m -0.0486,-1.81269 h 3.47971 q -0.35606,-1.27859 -1.71557,-1.27859 -1.40807,0 -1.76414,1.27859 z m 9.69464,-1.76413 q 0.22658,-0.77687 0.90634,-1.18149 0.69594,-0.4208 1.52136,-0.4208 v 2.7514 q -0.89016,-0.14566 -1.66702,0.30751 -0.76068,0.43699 -0.76068,1.53755 v 3.65774 h -2.42771 v -8.09235 h 2.42771 z m 3.56065,6.65191 v -11.81483 h 2.4277 v 11.81483 z m 6.44151,-9.22528 q -0.4208,0.4208 -1.01964,0.4208 -0.59883,0 -1.03582,-0.4208 -0.4208,-0.43699 -0.4208,-1.03582 0,-0.59883 0.4208,-1.01964 0.43699,-0.43698 1.03582,-0.43698 0.59884,0 1.01964,0.43698 0.43699,0.42081 0.43699,1.01964 0,0.59883 -0.43699,1.03582 z m -2.23349,9.22528 v -8.09235 h 2.42771 v 8.09235 z m 8.95015,-8.31894 q 1.29477,0 2.15256,0.89016 0.87398,0.89016 0.87398,2.46008 v 4.9687 h -2.42771 v -4.61264 q 0,-0.71213 -0.40462,-1.08437 -0.38843,-0.38844 -1.00345,-0.38844 -0.69594,0 -1.10056,0.4208 -0.40462,0.42081 -0.40462,1.24623 v 4.41842 h -2.4277 v -8.09235 h 2.4277 v 0.76068 q 0.72832,-0.98727 2.31442,-0.98727 z m 12.46222,8.31894 h -2.7514 l -2.58956,-3.57682 v 3.57682 h -2.4277 v -11.32929 h 2.4277 v 6.78139 l 2.42771,-3.54445 h 2.83232 l -2.94561,4.04617 z"
                 id="text2"
                 aria-label="coderlink" /><path
                 style="font-size:5.48863px;font-family:Gilroy-ExtraBold;-inkscape-font-specification:Gilroy-ExtraBold;fill:#4d4d4d;stroke-width:0.715466;stroke-linecap:round;stroke-miterlimit:148.3;paint-order:stroke fill markers"
                 d="m 242.07395,328.17938 h 0.87818 v 3.84204 h -0.87818 z m 3.11754,1.02089 q 0.43909,0 0.72999,0.30187 0.29639,0.30188 0.29639,0.83427 v 1.68501 h -0.8233 v -1.56426 q 0,-0.2415 -0.13721,-0.36773 -0.13173,-0.13173 -0.3403,-0.13173 -0.23601,0 -0.37323,0.1427 -0.13721,0.14271 -0.13721,0.42263 v 1.49839 h -0.8233 v -2.74431 h 0.8233 v 0.25796 q 0.24699,-0.3348 0.78487,-0.3348 z m 3.19987,0 q 0.43909,0 0.72999,0.30187 0.29639,0.30188 0.29639,0.83427 v 1.68501 h -0.8233 v -1.56426 q 0,-0.2415 -0.13721,-0.36773 -0.13173,-0.13173 -0.3403,-0.13173 -0.23601,0 -0.37322,0.1427 -0.13722,0.14271 -0.13722,0.42263 v 1.49839 h -0.82329 v -2.74431 h 0.82329 v 0.25796 q 0.24699,-0.3348 0.78487,-0.3348 z m 3.94084,2.48086 q -0.42262,0.41713 -1.03186,0.41713 -0.60924,0 -1.03186,-0.41713 -0.42263,-0.42263 -0.42263,-1.03186 0,-0.60924 0.42263,-1.02638 0.42262,-0.42262 1.03186,-0.42262 0.60924,0 1.03186,0.42262 0.42263,0.41714 0.42263,1.02638 0,0.60923 -0.42263,1.03186 z m -1.48193,-0.56533 q 0.18113,0.18112 0.45007,0.18112 0.26894,0 0.45007,-0.18112 0.18112,-0.18113 0.18112,-0.46653 0,-0.28541 -0.18112,-0.46654 -0.18113,-0.18112 -0.45007,-0.18112 -0.26894,0 -0.45007,0.18112 -0.18112,0.18113 -0.18112,0.46654 0,0.2854 0.18112,0.46653 z m 4.01219,-1.83869 h 0.91111 l -1.01539,2.74431 h -0.93307 l -1.0154,-2.74431 h 0.91111 l 0.57082,1.73989 z m 3.09559,0 h 0.82329 v 2.74431 h -0.82329 v -0.25796 q -0.2909,0.3348 -0.81781,0.3348 -0.54337,0 -0.92758,-0.41713 -0.3842,-0.42263 -0.3842,-1.03186 0,-0.60924 0.3842,-1.02638 0.38421,-0.42262 0.92758,-0.42262 0.52691,0 0.81781,0.3348 z m -1.12517,1.86064 q 0.18112,0.18113 0.47202,0.18113 0.2909,0 0.47202,-0.18113 0.18113,-0.18112 0.18113,-0.48848 0,-0.30737 -0.18113,-0.48849 -0.18112,-0.18113 -0.47202,-0.18113 -0.2909,0 -0.47202,0.18113 -0.18113,0.18112 -0.18113,0.48849 0,0.30736 0.18113,0.48848 z m 4.16038,-1.07028 h -0.56533 v 0.97149 q 0,0.16466 0.13173,0.20857 0.13172,0.0439 0.4336,0.0274 v 0.74645 q -0.78488,0.0823 -1.08675,-0.14819 -0.30188,-0.23601 -0.30188,-0.83427 v -0.97149 h -0.43909 v -0.79036 h 0.43909 v -0.52142 l 0.8233,-0.24699 v 0.76841 h 0.56533 z m 1.14712,0.91111 q 0.1427,0.38421 0.65864,0.38421 0.3348,0 0.5269,-0.20857 l 0.65864,0.37872 q -0.40616,0.56532 -1.19652,0.56532 -0.69157,0 -1.1087,-0.41164 -0.41165,-0.41165 -0.41165,-1.03735 0,-0.62022 0.40616,-1.03187 0.41164,-0.41713 1.05381,-0.41713 0.59826,0 0.99345,0.41713 0.40067,0.41165 0.40067,1.03187 0,0.17563 -0.0329,0.32931 z m -0.0165,-0.61472 h 1.18006 q -0.12075,-0.4336 -0.58179,-0.4336 -0.47752,0 -0.59827,0.4336 z m 5.56547,-1.08675 h 0.87818 l -0.93855,2.66198 q -0.23052,0.64766 -0.60924,0.92758 -0.37323,0.27992 -0.95502,0.25248 v -0.76841 q 0.28541,0 0.43909,-0.10428 0.15368,-0.0988 0.24699,-0.35128 l -1.09224,-2.61807 h 0.90562 l 0.60924,1.67952 z m 3.41942,2.40402 q -0.42262,0.41713 -1.03186,0.41713 -0.60924,0 -1.03186,-0.41713 -0.42263,-0.42263 -0.42263,-1.03186 0,-0.60924 0.42263,-1.02638 0.42262,-0.42262 1.03186,-0.42262 0.60924,0 1.03186,0.42262 0.42263,0.41714 0.42263,1.02638 0,0.60923 -0.42263,1.03186 z m -1.48193,-0.56533 q 0.18113,0.18112 0.45007,0.18112 0.26894,0 0.45007,-0.18112 0.18112,-0.18113 0.18112,-0.46653 0,-0.28541 -0.18112,-0.46654 -0.18113,-0.18112 -0.45007,-0.18112 -0.26894,0 -0.45007,0.18112 -0.18112,0.18113 -0.18112,0.46654 0,0.2854 0.18112,0.46653 z m 4.14392,-1.83869 h 0.82329 v 2.74431 h -0.82329 v -0.25796 q -0.24699,0.3348 -0.78488,0.3348 -0.43909,0 -0.73547,-0.30187 -0.2909,-0.30188 -0.2909,-0.83427 v -1.68501 h 0.8233 v 1.56426 q 0,0.2415 0.13172,0.37322 0.13722,0.12624 0.34579,0.12624 0.23601,0 0.37322,-0.1427 0.13722,-0.14271 0.13722,-0.42263 z m 2.25034,0.48849 q 0.0768,-0.26346 0.30736,-0.40067 0.23601,-0.14271 0.51593,-0.14271 v 0.93307 q -0.30187,-0.0494 -0.56533,0.10428 -0.25796,0.1482 -0.25796,0.52142 v 1.24043 h -0.8233 v -2.74431 h 0.8233 z m 3.35904,0.31285 q 0,0.0823 0.13722,0.13721 0.1427,0.0494 0.34029,0.10429 0.19759,0.0494 0.39518,0.13173 0.19759,0.0823 0.33481,0.27443 0.14271,0.18661 0.14271,0.47202 0,0.44458 -0.32932,0.6751 -0.32932,0.22503 -0.81232,0.22503 -0.8672,0 -1.18006,-0.65314 l 0.71353,-0.40616 q 0.10977,0.32383 0.46653,0.32383 0.29639,0 0.29639,-0.17015 0,-0.0823 -0.14271,-0.13722 -0.13721,-0.0549 -0.3348,-0.10428 -0.1976,-0.0549 -0.39519,-0.13722 -0.19759,-0.0878 -0.34029,-0.26894 -0.13722,-0.18112 -0.13722,-0.44458 0,-0.42811 0.30737,-0.66412 0.31285,-0.23601 0.7684,-0.23601 0.3403,0 0.62022,0.15368 0.27992,0.14819 0.45007,0.4336 l -0.70255,0.37872 q -0.13172,-0.2415 -0.36774,-0.2415 -0.23052,0 -0.23052,0.15368 z m 3.53469,-0.80134 h 0.82329 v 2.74431 h -0.82329 v -0.25796 q -0.24699,0.3348 -0.78488,0.3348 -0.43909,0 -0.73547,-0.30187 -0.2909,-0.30188 -0.2909,-0.83427 v -1.68501 h 0.8233 v 1.56426 q 0,0.2415 0.13172,0.37322 0.13722,0.12624 0.34579,0.12624 0.23601,0 0.37322,-0.1427 0.13722,-0.14271 0.13722,-0.42263 z m 2.74431,2.82115 q -0.6257,0 -1.04284,-0.41713 -0.41164,-0.41714 -0.41164,-1.03186 0,-0.61473 0.41164,-1.03187 0.41714,-0.41713 1.04284,-0.41713 0.39518,0 0.7245,0.1921 0.33481,0.1921 0.51593,0.51044 l -0.71901,0.41714 q -0.14819,-0.30737 -0.53239,-0.30737 -0.26895,0 -0.44458,0.18113 -0.17564,0.17564 -0.17564,0.45556 0,0.27992 0.17564,0.46104 0.17563,0.17564 0.44458,0.17564 0.38969,0 0.53239,-0.30737 l 0.71901,0.41165 q -0.18112,0.32383 -0.51044,0.51593 -0.32932,0.1921 -0.72999,0.1921 z m 2.83214,0 q -0.6257,0 -1.04284,-0.41713 -0.41165,-0.41714 -0.41165,-1.03186 0,-0.61473 0.41165,-1.03187 0.41714,-0.41713 1.04284,-0.41713 0.39518,0 0.7245,0.1921 0.33481,0.1921 0.51593,0.51044 l -0.71901,0.41714 q -0.14819,-0.30737 -0.5324,-0.30737 -0.26894,0 -0.44457,0.18113 -0.17564,0.17564 -0.17564,0.45556 0,0.27992 0.17564,0.46104 0.17563,0.17564 0.44457,0.17564 0.3897,0 0.5324,-0.30737 l 0.71901,0.41165 q -0.18112,0.32383 -0.51044,0.51593 -0.32932,0.1921 -0.72999,0.1921 z m 2.25034,-1.11968 q 0.14271,0.38421 0.65864,0.38421 0.33481,0 0.52691,-0.20857 l 0.65863,0.37872 q -0.40615,0.56532 -1.19652,0.56532 -0.69156,0 -1.1087,-0.41164 -0.41165,-0.41165 -0.41165,-1.03735 0,-0.62022 0.40616,-1.03187 0.41165,-0.41713 1.05382,-0.41713 0.59826,0 0.99344,0.41713 0.40067,0.41165 0.40067,1.03187 0,0.17563 -0.0329,0.32931 z m -0.0165,-0.61472 h 1.18005 q -0.12075,-0.4336 -0.58179,-0.4336 -0.47751,0 -0.59826,0.4336 z m 3.134,-0.28541 q 0,0.0823 0.13722,0.13721 0.1427,0.0494 0.34029,0.10429 0.19759,0.0494 0.39518,0.13173 0.19759,0.0823 0.33481,0.27443 0.1427,0.18661 0.1427,0.47202 0,0.44458 -0.32931,0.6751 -0.32932,0.22503 -0.81232,0.22503 -0.8672,0 -1.18006,-0.65314 l 0.71353,-0.40616 q 0.10977,0.32383 0.46653,0.32383 0.29639,0 0.29639,-0.17015 0,-0.0823 -0.14271,-0.13722 -0.13721,-0.0549 -0.33481,-0.10428 -0.19759,-0.0549 -0.39518,-0.13722 -0.19759,-0.0878 -0.34029,-0.26894 -0.13722,-0.18112 -0.13722,-0.44458 0,-0.42811 0.30737,-0.66412 0.31285,-0.23601 0.7684,-0.23601 0.3403,0 0.62022,0.15368 0.27992,0.14819 0.45007,0.4336 l -0.70255,0.37872 q -0.13173,-0.2415 -0.36774,-0.2415 -0.23052,0 -0.23052,0.15368 z m 2.40402,0 q 0,0.0823 0.13722,0.13721 0.1427,0.0494 0.34029,0.10429 0.19759,0.0494 0.39518,0.13173 0.19759,0.0823 0.33481,0.27443 0.1427,0.18661 0.1427,0.47202 0,0.44458 -0.32932,0.6751 -0.32931,0.22503 -0.81231,0.22503 -0.86721,0 -1.18006,-0.65314 l 0.71352,-0.40616 q 0.10978,0.32383 0.46654,0.32383 0.29638,0 0.29638,-0.17015 0,-0.0823 -0.1427,-0.13722 -0.13722,-0.0549 -0.33481,-0.10428 -0.19759,-0.0549 -0.39518,-0.13722 -0.19759,-0.0878 -0.34029,-0.26894 -0.13722,-0.18112 -0.13722,-0.44458 0,-0.42811 0.30736,-0.66412 0.31286,-0.23601 0.76841,-0.23601 0.3403,0 0.62022,0.15368 0.27992,0.14819 0.45006,0.4336 l -0.70254,0.37872 q -0.13173,-0.2415 -0.36774,-0.2415 -0.23052,0 -0.23052,0.15368 z"
                 id="text4"
                 aria-label="Innovate your success" /></g></g></g></g></g></g></svg>
